<svg xmlns="http://www.w3.org/2000/svg" viewBox="0 8.859999656677246 213.2100067138672 37.0099983215332" data-asc="0.9052734375" width="213.2100067138672" height="37.0099983215332"><defs/><g fill="#000000"><g transform="translate(0, 0)"><path d="M0 45.26L13.75 9.47L18.85 9.47L33.50 45.26L28.10 45.26L23.93 34.42L8.96 34.42L5.03 45.26L0 45.26M10.33 30.57L22.46 30.57L18.73 20.65Q17.02 16.14 16.19 13.23Q15.50 16.67 14.26 20.07L10.33 30.57ZM41.67 45.26L32.18 9.47L37.04 9.47L42.48 32.93Q43.36 36.62 43.99 40.26Q45.36 34.52 45.61 33.64L52.42 9.47L58.13 9.47L63.26 27.59Q65.19 34.33 66.04 40.26Q66.72 36.87 67.82 32.47L73.44 9.47L78.20 9.47L68.38 45.26L63.82 45.26L56.27 17.99Q55.32 14.58 55.15 13.79Q54.59 16.26 54.10 17.99L46.51 45.26L41.67 45.26ZM76.83 45.26L90.58 9.47L95.68 9.47L110.33 45.26L104.93 45.26L100.76 34.42L85.79 34.42L81.86 45.26L76.83 45.26M87.16 30.57L99.29 30.57L95.56 20.65Q93.85 16.14 93.02 13.23Q92.33 16.67 91.09 20.07L87.16 30.57ZM114.18 45.26L114.18 9.47L130.05 9.47Q134.84 9.47 137.33 10.44Q139.82 11.40 141.31 13.84Q142.80 16.28 142.80 19.24Q142.80 23.05 140.33 25.66Q137.87 28.27 132.71 28.98Q134.59 29.88 135.57 30.76Q137.65 32.67 139.50 35.52L145.73 45.26L139.77 45.26L135.03 37.82Q132.96 34.59 131.62 32.89Q130.27 31.18 129.21 30.49Q128.15 29.81 127.05 29.54Q126.25 29.37 124.41 29.37L118.92 29.37L118.92 45.26L114.18 45.26M118.92 25.27L129.10 25.27Q132.35 25.27 134.18 24.60Q136.01 23.93 136.96 22.45Q137.92 20.97 137.92 19.24Q137.92 16.70 136.07 15.06Q134.23 13.43 130.25 13.43L118.92 13.43L118.92 25.27ZM150.22 45.26L150.22 9.47L162.55 9.47Q166.72 9.47 168.92 9.99Q172.00 10.69 174.17 12.55Q177.00 14.94 178.41 18.66Q179.81 22.39 179.81 27.17Q179.81 31.25 178.86 34.40Q177.91 37.55 176.42 39.61Q174.93 41.67 173.16 42.86Q171.39 44.04 168.88 44.65Q166.38 45.26 163.13 45.26L150.22 45.26M154.96 41.04L162.60 41.04Q166.14 41.04 168.15 40.38Q170.17 39.72 171.36 38.53Q173.05 36.84 173.99 34.00Q174.93 31.15 174.93 27.10Q174.93 21.48 173.08 18.47Q171.24 15.45 168.60 14.43Q166.70 13.70 162.48 13.70L154.96 13.70L154.96 41.04ZM184.72 33.76L189.18 33.37Q189.50 36.06 190.66 37.78Q191.82 39.50 194.26 40.56Q196.70 41.63 199.76 41.63Q202.47 41.63 204.54 40.82Q206.62 40.01 207.63 38.61Q208.64 37.21 208.64 35.55Q208.64 33.86 207.67 32.60Q206.69 31.35 204.44 30.49Q203.00 29.93 198.07 28.75Q193.14 27.56 191.16 26.51Q188.60 25.17 187.34 23.18Q186.08 21.19 186.08 18.73Q186.08 16.02 187.62 13.66Q189.16 11.30 192.11 10.08Q195.07 8.86 198.68 8.86Q202.66 8.86 205.70 10.14Q208.74 11.43 210.38 13.92Q212.01 16.41 212.13 19.56L207.59 19.90Q207.23 16.50 205.11 14.77Q203.00 13.04 198.88 13.04Q194.58 13.04 192.61 14.61Q190.65 16.19 190.65 18.41Q190.65 20.34 192.04 21.58Q193.41 22.83 199.18 24.13Q204.96 25.44 207.10 26.42Q210.23 27.86 211.72 30.07Q213.21 32.28 213.21 35.16Q213.21 38.01 211.57 40.54Q209.94 43.07 206.87 44.47Q203.81 45.87 199.98 45.87Q195.12 45.87 191.83 44.46Q188.55 43.04 186.68 40.20Q184.81 37.35 184.72 33.76Z"/></g><g transform="translate(0, 60.595703125)"><path d=""/></g></g></svg>